# xmcd CD database file
#
# Track frame offsets:
#	150
#	20614
#	40821
#	60755
#	77219
#	93584
#	108604
#	128262
#	147476
#	166216
#
# Disc length: 2477 seconds
#
# Revision: 1
# Processed by: cddbd v1.4PL0 Copyright (c) Steve Scherf et al.
# Submitted via: CDex 1.50Beta7
#
DISCID=7a09ab0a
DTITLE=Happy Baby - Country für Babys
DYEAR=2002
DGENRE=Country
TTITLE0=Tennessee Waltz
TTITLE1=Always on my mind
TTITLE2=Country Roads
TTITLE3=Love can build a bridge
TTITLE4=Colorado dreams
TTITLE5=Crazy
TTITLE6=Lucille
TTITLE7=Stand by your man
TTITLE8=When i call your name
TTITLE9=I will always love you
EXTD=YEAR: 2002
EXTT0=
EXTT1=
EXTT2=
EXTT3=
EXTT4=
EXTT5=
EXTT6=
EXTT7=
EXTT8=
EXTT9=
PLAYORDER=
